# xmcd CD database file
#
# Track frame offsets:
#	150
#	14111
#	27814
#	39639
#	53833
#	67360
#	77788
#	90392
#	102162
#	116956
#	127550
#	141476
#
# Disc length: 2051 seconds
#
# Revision: 1
# Processed by: cddbd v1.5.2PL0 Copyright (c) Steve Scherf et al.
# Submitted via: CDex 1.83
#
DISCID=a608010c
DTITLE=Chuck Jackson - Chuck Jackson Arrives!
DYEAR=1968
DGENRE=Soul
TTITLE0=(You Can't Let The Boy Overpower) The Man In You (S.Robinson)
TTITLE1=Your Wonderful Love (Berry Gordy)
TTITLE2=Lonely Lonely Man Am I (Holland-Whitfield-E.Kendriks)
TTITLE3=Ain't No Sun Since You've Been Gone (C.Grant-Sylvia Moy-N.Whitfield))
TTITLE4=I Can't Go On Sharing Your Love (Holland-Dozier-Holland)
TTITLE5=Forgive My Jealousy (Hunter-Goga-Sawyer)
TTITLE6=To See The Sun Again (Hunter-Goga)
TTITLE7=What Am I Gonna Do Without You (Hunter-S.Wonder)
TTITLE8=I Like Everything About You (Holland-Dozier-Holland)
TTITLE9=We'll Find A Way (Ivy Joe Hunter-B.Verdi)
TTITLE10=Where You Gonna Run To Now (J.Dean-Weatherspoon-Mcleod)
TTITLE11=Girls, Girls, Girls
EXTD=YEAR: 1968
EXTT0=
EXTT1=
EXTT2=
EXTT3=
EXTT4=
EXTT5=
EXTT6=
EXTT7=
EXTT8=
EXTT9=
EXTT10=
EXTT11=
PLAYORDER=
